<svg width="65" height="15" viewBox="0 0 65 15" fill="none" xmlns="http://www.w3.org/2000/svg">
<path d="M9.98438 3.61133C9.98438 3.79883 9.9375 3.99219 9.84375 4.19141C9.75 4.39063 9.62402 4.57227 9.46582 4.73633C9.31348 4.89453 9.13477 5.02637 8.92969 5.13184C8.72461 5.2373 8.50781 5.29004 8.2793 5.29004C8.07422 5.29004 7.89551 5.25488 7.74316 5.18457C7.59082 5.11426 7.4502 5.02637 7.32129 4.9209C7.19824 4.80957 7.08105 4.69238 6.96973 4.56934C6.8584 4.44043 6.74121 4.32324 6.61816 4.21777C6.49512 4.10645 6.36035 4.01562 6.21387 3.94531C6.07324 3.875 5.90625 3.83984 5.71289 3.83984C5.55469 3.83984 5.42578 3.85742 5.32617 3.89258C5.22656 3.92773 5.15039 3.98926 5.09766 4.07715C5.04492 4.16504 5.00684 4.28809 4.9834 4.44629C4.96582 4.60449 4.95703 4.80664 4.95703 5.05273C4.95703 5.21094 5.00098 5.36035 5.08887 5.50098C5.18262 5.63574 5.29688 5.75586 5.43164 5.86133C5.57227 5.96094 5.71875 6.04297 5.87109 6.10742C6.0293 6.16602 6.16992 6.19531 6.29297 6.19531C6.49805 6.19531 6.69727 6.18066 6.89062 6.15137C7.08984 6.11621 7.29199 6.09863 7.49707 6.09863C7.9834 6.09863 8.34082 6.22461 8.56934 6.47656C8.80371 6.72852 8.9209 7.0918 8.9209 7.56641C8.9209 7.73047 8.88574 7.87988 8.81543 8.01465C8.74512 8.14355 8.65137 8.25488 8.53418 8.34863C8.41699 8.43652 8.28516 8.50684 8.13867 8.55957C7.99219 8.60645 7.84277 8.62988 7.69043 8.62988C7.49121 8.62988 7.29492 8.59766 7.10156 8.5332C6.91406 8.46289 6.72363 8.38672 6.53027 8.30469C6.34277 8.2168 6.15234 8.14062 5.95898 8.07617C5.77148 8.00586 5.57812 7.9707 5.37891 7.9707C5.20312 7.9707 5.07422 8.00586 4.99219 8.07617C4.91602 8.14062 4.87793 8.26367 4.87793 8.44531C4.87793 8.79688 4.95117 9.13965 5.09766 9.47363C5.24414 9.80762 5.40527 10.1357 5.58105 10.458C5.75684 10.7744 5.91797 11.085 6.06445 11.3896C6.21094 11.6885 6.28418 11.9814 6.28418 12.2686C6.28418 12.6143 6.20801 12.9043 6.05566 13.1387C5.90918 13.3672 5.71582 13.5518 5.47559 13.6924C5.23535 13.8271 4.96875 13.9238 4.67578 13.9824C4.38281 14.041 4.08984 14.0703 3.79688 14.0703C3.30469 14.0703 2.87109 13.9824 2.49609 13.8066C2.12695 13.6309 1.80762 13.3965 1.53809 13.1035C1.27441 12.8047 1.05469 12.459 0.878906 12.0664C0.703125 11.6738 0.5625 11.2607 0.457031 10.8271C0.351562 10.3877 0.27832 9.93945 0.237305 9.48242C0.196289 9.02539 0.175781 8.58594 0.175781 8.16406C0.175781 7.625 0.213867 7.07422 0.290039 6.51172C0.37207 5.94922 0.503906 5.4043 0.685547 4.87695C0.867188 4.34961 1.10449 3.85449 1.39746 3.3916C1.69629 2.92871 2.05957 2.52441 2.4873 2.17871C2.91504 1.82715 3.41602 1.55176 3.99023 1.35254C4.56445 1.14746 5.2207 1.04492 5.95898 1.04492C7.25391 1.04492 8.24707 1.25586 8.93848 1.67773C9.63574 2.09961 9.98438 2.74414 9.98438 3.61133ZM12.2695 0.614258C12.4922 0.614258 12.709 0.634766 12.9199 0.675781C13.1309 0.710938 13.3184 0.790039 13.4824 0.913086C13.6523 1.03027 13.7871 1.2002 13.8867 1.42285C13.9922 1.64551 14.0449 1.94141 14.0449 2.31055C14.0449 2.9082 13.9043 3.3418 13.623 3.61133C13.3477 3.88086 12.8994 4.01562 12.2783 4.01562C11.6689 4.01562 11.2178 3.88672 10.9248 3.62891C10.6318 3.37109 10.4854 2.97559 10.4854 2.44238C10.4854 2.18457 10.5146 1.94727 10.5732 1.73047C10.6377 1.50781 10.7402 1.31445 10.8809 1.15039C11.0215 0.980469 11.2061 0.848633 11.4346 0.754883C11.6631 0.661133 11.9414 0.614258 12.2695 0.614258ZM12.085 4.77148C12.3662 4.77148 12.6006 4.83301 12.7881 4.95605C12.9756 5.07324 13.1309 5.23438 13.2539 5.43945C13.3828 5.64453 13.4854 5.88477 13.5615 6.16016C13.6436 6.43555 13.7139 6.72852 13.7725 7.03906C13.8311 7.34961 13.8838 7.66895 13.9307 7.99707C13.9834 8.31934 14.0449 8.63574 14.1152 8.94629C14.2559 9.5498 14.3262 10.1533 14.3262 10.7568C14.3262 11.249 14.2764 11.6943 14.1768 12.0928C14.0771 12.4912 13.9336 12.8311 13.7461 13.1123C13.5645 13.3877 13.3389 13.6016 13.0693 13.7539C12.8057 13.9004 12.5098 13.9736 12.1816 13.9736C11.8535 13.9736 11.5576 13.8975 11.2939 13.7451C11.0361 13.5928 10.8164 13.373 10.6348 13.0859C10.4531 12.7988 10.3125 12.4473 10.2129 12.0312C10.1191 11.6152 10.0723 11.1465 10.0723 10.625C10.0723 10.2207 10.084 9.7959 10.1074 9.35059C10.1309 8.90527 10.1689 8.46582 10.2217 8.03223C10.2803 7.59863 10.3564 7.18555 10.4502 6.79297C10.5498 6.40039 10.6729 6.05469 10.8193 5.75586C10.9717 5.45117 11.1504 5.21094 11.3555 5.03516C11.5664 4.85938 11.8096 4.77148 12.085 4.77148ZM17.5518 4.15625C17.8389 4.15625 18.082 4.19434 18.2812 4.27051C18.4805 4.34668 18.6533 4.43164 18.7998 4.52539C18.9463 4.61914 19.0723 4.7041 19.1777 4.78027C19.2891 4.85645 19.4004 4.89453 19.5117 4.89453C19.582 4.89453 19.6904 4.85352 19.8369 4.77148C19.9893 4.68359 20.1621 4.58691 20.3555 4.48145C20.5547 4.37598 20.7686 4.28223 20.9971 4.2002C21.2256 4.1123 21.4512 4.06836 21.6738 4.06836C22.2539 4.06836 22.7285 4.19434 23.0977 4.44629C23.4668 4.69824 23.7539 5.07617 23.959 5.58008C24.1641 6.08398 24.3047 6.71973 24.3809 7.4873C24.457 8.24902 24.4951 9.14551 24.4951 10.1768C24.4951 10.5283 24.498 10.8623 24.5039 11.1787C24.5098 11.4951 24.501 11.7881 24.4775 12.0576C24.46 12.3271 24.4189 12.5703 24.3545 12.7871C24.29 13.0039 24.1875 13.1885 24.0469 13.3408C23.9062 13.4873 23.7158 13.6016 23.4756 13.6836C23.2412 13.7656 22.9424 13.8066 22.5791 13.8066C22.2686 13.8066 21.9756 13.7803 21.7002 13.7275C21.4248 13.6748 21.1816 13.584 20.9707 13.4551C20.7656 13.3203 20.6016 13.1416 20.4785 12.9189C20.3613 12.6904 20.3027 12.4004 20.3027 12.0488C20.3027 11.7617 20.332 11.4805 20.3906 11.2051C20.4492 10.9238 20.5137 10.6455 20.584 10.3701C20.6543 10.0947 20.7188 9.81934 20.7773 9.54395C20.8359 9.2627 20.8652 8.98145 20.8652 8.7002C20.8652 8.34863 20.7715 8.08789 20.584 7.91797C20.4023 7.74219 20.1357 7.6543 19.7842 7.6543C19.5557 7.6543 19.3711 7.71875 19.2305 7.84766C19.0898 7.9707 18.9785 8.12891 18.8965 8.32227C18.8203 8.50977 18.7676 8.71484 18.7383 8.9375C18.7148 9.16016 18.7031 9.36816 18.7031 9.56152C18.7031 9.83105 18.7471 10.0977 18.835 10.3613C18.9287 10.625 19.0283 10.8887 19.1338 11.1523C19.2393 11.4102 19.3359 11.6738 19.4238 11.9434C19.5176 12.207 19.5645 12.4795 19.5645 12.7607C19.5645 13.0479 19.5088 13.3027 19.3975 13.5254C19.2861 13.7422 19.1396 13.9238 18.958 14.0703C18.7822 14.2168 18.5801 14.3252 18.3516 14.3955C18.123 14.4717 17.8916 14.5098 17.6572 14.5098C17.0068 14.5098 16.4971 14.457 16.1279 14.3516C15.7588 14.2461 15.4805 14.0703 15.293 13.8242C15.1113 13.5781 14.9971 13.2559 14.9502 12.8574C14.9092 12.4531 14.8887 11.9551 14.8887 11.3633C14.8887 10.9121 14.874 10.4229 14.8447 9.89551C14.8154 9.36816 14.8037 8.83789 14.8096 8.30469C14.8154 7.76562 14.8535 7.24707 14.9238 6.74902C14.9941 6.25098 15.126 5.81152 15.3193 5.43066C15.5186 5.04395 15.7969 4.73633 16.1543 4.50781C16.5117 4.27344 16.9775 4.15625 17.5518 4.15625ZM29.7861 7.03027C29.5283 7.03027 29.291 7.08594 29.0742 7.19727C28.8633 7.30273 28.6787 7.45215 28.5205 7.64551C28.3682 7.83887 28.248 8.07031 28.1602 8.33984C28.0723 8.60938 28.0283 8.90234 28.0283 9.21875C28.0283 9.6582 28.1074 9.97754 28.2656 10.1768C28.4238 10.3701 28.6758 10.4668 29.0215 10.4668C29.2852 10.4668 29.5283 10.4141 29.751 10.3086C29.9795 10.2031 30.1758 10.0596 30.3398 9.87793C30.5098 9.69043 30.6416 9.4707 30.7354 9.21875C30.8291 8.9668 30.876 8.69727 30.876 8.41016C30.876 7.99414 30.7881 7.66016 30.6123 7.4082C30.4424 7.15625 30.167 7.03027 29.7861 7.03027ZM30.1377 13.0244C29.9502 13.0244 29.7861 13.0771 29.6455 13.1826C29.5107 13.2822 29.3643 13.3936 29.2061 13.5166C29.0537 13.6338 28.875 13.7451 28.6699 13.8506C28.4707 13.9502 28.2158 14 27.9053 14C27.4775 14 27.0791 13.8916 26.71 13.6748C26.3467 13.458 26.0303 13.1592 25.7607 12.7783C25.4971 12.3916 25.2891 11.9346 25.1367 11.4072C24.9902 10.8799 24.917 10.3057 24.917 9.68457C24.917 9.19824 24.9639 8.7207 25.0576 8.25195C25.1514 7.7832 25.2803 7.34082 25.4443 6.9248C25.6084 6.50293 25.8018 6.11621 26.0244 5.76465C26.2529 5.40723 26.502 5.09961 26.7715 4.8418C27.041 4.58398 27.3252 4.38184 27.624 4.23535C27.9229 4.08887 28.2275 4.01562 28.5381 4.01562C28.8076 4.01562 29.0391 4.06543 29.2324 4.16504C29.4258 4.25879 29.5957 4.36426 29.7422 4.48145C29.8945 4.59863 30.0293 4.70703 30.1465 4.80664C30.2637 4.90039 30.3809 4.94727 30.498 4.94727C30.6328 4.94727 30.7031 4.87695 30.709 4.73633C30.7207 4.5957 30.7031 4.41406 30.6562 4.19141C30.6152 3.96875 30.5654 3.71973 30.5068 3.44434C30.4482 3.16309 30.4189 2.88184 30.4189 2.60059C30.4189 2.12012 30.5361 1.77148 30.7705 1.55469C31.0049 1.33203 31.377 1.2207 31.8867 1.2207C32.6367 1.2207 33.2109 1.44336 33.6094 1.88867C34.0078 2.33398 34.207 2.97559 34.207 3.81348C34.207 4.07715 34.2246 4.39355 34.2598 4.7627C34.2949 5.13184 34.333 5.5332 34.374 5.9668C34.415 6.40039 34.4531 6.85742 34.4883 7.33789C34.5234 7.81836 34.541 8.30469 34.541 8.79688C34.541 9.62891 34.4824 10.3701 34.3652 11.0205C34.248 11.6709 34.0781 12.2188 33.8555 12.6641C33.6328 13.1094 33.3604 13.4492 33.0381 13.6836C32.7217 13.9121 32.3613 14.0264 31.957 14.0264C31.7344 14.0264 31.5498 14.0029 31.4033 13.9561C31.2627 13.9033 31.1455 13.8418 31.0518 13.7715C30.9639 13.6953 30.8906 13.6133 30.832 13.5254C30.7734 13.4375 30.7119 13.3584 30.6475 13.2881C30.5889 13.2119 30.5215 13.1504 30.4453 13.1035C30.3691 13.0508 30.2666 13.0244 30.1377 13.0244ZM38.3555 6.125C38.3555 5.95508 38.3438 5.80273 38.3203 5.66797C38.3027 5.52734 38.2617 5.40723 38.1973 5.30762C38.1387 5.20801 38.0537 5.13184 37.9424 5.0791C37.8311 5.02051 37.6816 4.99121 37.4941 4.99121C37.2363 4.99121 36.9814 5.00879 36.7295 5.04395C36.4834 5.0791 36.2344 5.09668 35.9824 5.09668C35.1445 5.09668 34.7256 4.67773 34.7256 3.83984C34.7256 3.46484 34.8018 3.14844 34.9541 2.89062C35.1123 2.62695 35.3174 2.40723 35.5693 2.23145C35.8271 2.05566 36.1201 1.9209 36.4482 1.82715C36.7764 1.72754 37.1133 1.6543 37.459 1.60742C37.8047 1.55469 38.1445 1.52246 38.4785 1.51074C38.8125 1.49902 39.1143 1.49316 39.3838 1.49316C39.6416 1.49316 39.9785 1.50488 40.3945 1.52832C40.8105 1.55176 41.2529 1.59863 41.7217 1.66895C42.1963 1.7334 42.6738 1.82715 43.1543 1.9502C43.6348 2.06738 44.0654 2.22559 44.4463 2.4248C44.833 2.61816 45.1465 2.8584 45.3867 3.14551C45.6328 3.42676 45.7559 3.76074 45.7559 4.14746C45.7559 4.3584 45.7148 4.53418 45.6328 4.6748C45.5508 4.80957 45.4424 4.91797 45.3076 5C45.1729 5.07617 45.0176 5.12891 44.8418 5.1582C44.6719 5.1875 44.4961 5.20215 44.3145 5.20215C44.0625 5.20215 43.8135 5.17871 43.5674 5.13184C43.3271 5.0791 43.0811 5.05273 42.8291 5.05273C42.6123 5.05273 42.4336 5.0791 42.293 5.13184C42.1523 5.18457 42.041 5.26367 41.959 5.36914C41.877 5.46875 41.8213 5.59473 41.792 5.74707C41.7627 5.89355 41.748 6.06641 41.748 6.26562C41.748 6.77539 41.7861 7.27051 41.8623 7.75098C41.9443 8.22559 42.0322 8.69727 42.126 9.16602C42.2197 9.62891 42.3047 10.0889 42.3809 10.5459C42.4629 10.9971 42.5039 11.4541 42.5039 11.917C42.5039 12.292 42.46 12.6084 42.3721 12.8662C42.2842 13.1182 42.1494 13.3203 41.9678 13.4727C41.7861 13.625 41.5605 13.7363 41.291 13.8066C41.0273 13.8711 40.7139 13.9033 40.3506 13.9033C39.9756 13.9033 39.5977 13.8623 39.2168 13.7803C38.8359 13.6982 38.4932 13.5635 38.1885 13.376C37.8838 13.1885 37.6348 12.9453 37.4414 12.6465C37.2539 12.3418 37.1602 11.9668 37.1602 11.5215C37.1602 11.2168 37.1895 10.915 37.248 10.6162C37.3066 10.3174 37.3799 10.0215 37.4678 9.72852C37.5557 9.42969 37.6523 9.13379 37.7578 8.84082C37.8633 8.54785 37.96 8.25195 38.0479 7.95312C38.1357 7.6543 38.209 7.35254 38.2676 7.04785C38.3262 6.74316 38.3555 6.43555 38.3555 6.125ZM50.3525 13.2002C50.1943 13.2002 50.0244 13.2354 49.8428 13.3057C49.667 13.3701 49.4824 13.4434 49.2891 13.5254C49.0957 13.6016 48.8936 13.6748 48.6826 13.7451C48.4775 13.8096 48.2637 13.8418 48.041 13.8418C47.6016 13.8418 47.1973 13.7803 46.8281 13.6572C46.4648 13.5283 46.1514 13.3438 45.8877 13.1035C45.624 12.8633 45.4189 12.5674 45.2725 12.2158C45.126 11.8643 45.0527 11.4629 45.0527 11.0117C45.0527 10.4844 45.1494 10.0068 45.3428 9.5791C45.5361 9.14551 45.7998 8.77637 46.1338 8.47168C46.4678 8.16699 46.8574 7.93262 47.3027 7.76855C47.7539 7.60449 48.2344 7.52246 48.7441 7.52246C49.0078 7.52246 49.2393 7.4873 49.4385 7.41699C49.6436 7.34668 49.8164 7.25586 49.957 7.14453C50.0977 7.02734 50.2031 6.89551 50.2734 6.74902C50.3496 6.59668 50.3877 6.44141 50.3877 6.2832C50.3877 6.11914 50.335 6.00195 50.2295 5.93164C50.124 5.85547 49.9951 5.81738 49.8428 5.81738C49.7197 5.81738 49.5996 5.85254 49.4824 5.92285C49.3652 5.9873 49.2451 6.07227 49.1221 6.17773C49.0049 6.2832 48.876 6.39453 48.7354 6.51172C48.6006 6.62891 48.4453 6.74023 48.2695 6.8457C48.0996 6.95117 47.9062 7.03906 47.6895 7.10938C47.4727 7.17383 47.2266 7.20605 46.9512 7.20605C46.793 7.20605 46.6289 7.17969 46.459 7.12695C46.2891 7.06836 46.1338 6.9834 45.9932 6.87207C45.8584 6.76074 45.7471 6.62305 45.6592 6.45898C45.5713 6.28906 45.5273 6.0957 45.5273 5.87891C45.5273 5.38672 45.624 4.99707 45.8174 4.70996C46.0166 4.41699 46.292 4.19727 46.6436 4.05078C47.001 3.89844 47.4258 3.80176 47.918 3.76074C48.416 3.71387 48.9609 3.69043 49.5527 3.69043C50.1621 3.69043 50.6865 3.75488 51.126 3.88379C51.5713 4.0127 51.9463 4.2002 52.251 4.44629C52.5615 4.68652 52.8105 4.98535 52.998 5.34277C53.1855 5.69434 53.332 6.09277 53.4375 6.53809C53.543 6.9834 53.6133 7.47266 53.6484 8.00586C53.6836 8.5332 53.7012 9.09863 53.7012 9.70215C53.7012 9.90137 53.6982 10.1475 53.6924 10.4404C53.6924 10.7275 53.6777 11.0293 53.6484 11.3457C53.625 11.6621 53.5781 11.9756 53.5078 12.2861C53.4434 12.5967 53.3467 12.8779 53.2178 13.1299C53.0889 13.376 52.9219 13.5781 52.7168 13.7363C52.5117 13.8887 52.2598 13.9648 51.9609 13.9648C51.7559 13.9648 51.5889 13.9268 51.46 13.8506C51.3311 13.7686 51.2109 13.6807 51.0996 13.5869C50.9941 13.4873 50.8857 13.3994 50.7744 13.3232C50.6631 13.2412 50.5225 13.2002 50.3525 13.2002ZM50.3613 10.2646C50.3613 10.124 50.3262 10.0039 50.2559 9.9043C50.1914 9.80469 50.1064 9.72266 50.001 9.6582C49.8955 9.58789 49.7783 9.53809 49.6494 9.50879C49.5205 9.47363 49.3975 9.45605 49.2803 9.45605C49.0049 9.45605 48.7676 9.5293 48.5684 9.67578C48.375 9.82227 48.2783 10.042 48.2783 10.335C48.2783 10.6104 48.3633 10.8242 48.5332 10.9766C48.709 11.1289 48.9287 11.2051 49.1924 11.2051C49.3213 11.2051 49.4531 11.1846 49.5879 11.1436C49.7285 11.0967 49.8545 11.0322 49.9658 10.9502C50.083 10.8682 50.1768 10.7715 50.2471 10.6602C50.3232 10.543 50.3613 10.4111 50.3613 10.2646ZM56.4434 0.614258C56.666 0.614258 56.8828 0.634766 57.0938 0.675781C57.3047 0.710938 57.4922 0.790039 57.6562 0.913086C57.8262 1.03027 57.9609 1.2002 58.0605 1.42285C58.166 1.64551 58.2188 1.94141 58.2188 2.31055C58.2188 2.9082 58.0781 3.3418 57.7969 3.61133C57.5215 3.88086 57.0732 4.01562 56.4521 4.01562C55.8428 4.01562 55.3916 3.88672 55.0986 3.62891C54.8057 3.37109 54.6592 2.97559 54.6592 2.44238C54.6592 2.18457 54.6885 1.94727 54.7471 1.73047C54.8115 1.50781 54.9141 1.31445 55.0547 1.15039C55.1953 0.980469 55.3799 0.848633 55.6084 0.754883C55.8369 0.661133 56.1152 0.614258 56.4434 0.614258ZM56.2588 4.77148C56.54 4.77148 56.7744 4.83301 56.9619 4.95605C57.1494 5.07324 57.3047 5.23438 57.4277 5.43945C57.5566 5.64453 57.6592 5.88477 57.7354 6.16016C57.8174 6.43555 57.8877 6.72852 57.9463 7.03906C58.0049 7.34961 58.0576 7.66895 58.1045 7.99707C58.1572 8.31934 58.2188 8.63574 58.2891 8.94629C58.4297 9.5498 58.5 10.1533 58.5 10.7568C58.5 11.249 58.4502 11.6943 58.3506 12.0928C58.251 12.4912 58.1074 12.8311 57.9199 13.1123C57.7383 13.3877 57.5127 13.6016 57.2432 13.7539C56.9795 13.9004 56.6836 13.9736 56.3555 13.9736C56.0273 13.9736 55.7314 13.8975 55.4678 13.7451C55.21 13.5928 54.9902 13.373 54.8086 13.0859C54.627 12.7988 54.4863 12.4473 54.3867 12.0312C54.293 11.6152 54.2461 11.1465 54.2461 10.625C54.2461 10.2207 54.2578 9.7959 54.2812 9.35059C54.3047 8.90527 54.3428 8.46582 54.3955 8.03223C54.4541 7.59863 54.5303 7.18555 54.624 6.79297C54.7236 6.40039 54.8467 6.05469 54.9932 5.75586C55.1455 5.45117 55.3242 5.21094 55.5293 5.03516C55.7402 4.85938 55.9834 4.77148 56.2588 4.77148ZM62.2705 1.52832C62.5166 1.52832 62.7422 1.58691 62.9473 1.7041C63.1582 1.82129 63.3398 1.97363 63.4922 2.16113C63.6445 2.34277 63.7617 2.54785 63.8438 2.77637C63.9316 3.00488 63.9756 3.2334 63.9756 3.46191C63.9756 3.81934 63.9492 4.17676 63.8965 4.53418C63.8438 4.88574 63.7822 5.24316 63.7119 5.60645C63.6475 5.96387 63.5889 6.32715 63.5361 6.69629C63.4834 7.06543 63.457 7.44336 63.457 7.83008C63.457 8.0293 63.457 8.2373 63.457 8.4541C63.4629 8.6709 63.4834 8.88477 63.5186 9.0957C63.5537 9.30664 63.6123 9.50879 63.6943 9.70215C63.7764 9.88965 63.8936 10.0596 64.0459 10.2119C64.1396 10.2998 64.2129 10.3877 64.2656 10.4756C64.3242 10.5635 64.3682 10.6572 64.3975 10.7568C64.4326 10.8506 64.4531 10.9502 64.459 11.0557C64.4707 11.1611 64.4766 11.2754 64.4766 11.3984C64.4766 11.7969 64.418 12.1543 64.3008 12.4707C64.1836 12.7871 64.0137 13.0566 63.791 13.2793C63.5684 13.4961 63.2988 13.6631 62.9824 13.7803C62.666 13.8975 62.3086 13.9561 61.9102 13.9561C61.4941 13.9561 61.1309 13.8945 60.8203 13.7715C60.5156 13.6484 60.2549 13.4785 60.0381 13.2617C59.8213 13.0449 59.6455 12.793 59.5107 12.5059C59.376 12.2188 59.2676 11.9141 59.1855 11.5918C59.1094 11.2637 59.0566 10.9238 59.0273 10.5723C58.998 10.2207 58.9834 9.87793 58.9834 9.54395C58.9834 9.33301 58.9951 9.05762 59.0186 8.71777C59.0479 8.37207 59.0918 7.99121 59.1504 7.5752C59.209 7.15918 59.2852 6.72266 59.3789 6.26562C59.4727 5.80273 59.584 5.34863 59.7129 4.90332C59.8418 4.45215 59.9883 4.02441 60.1523 3.62012C60.3223 3.20996 60.5127 2.84961 60.7236 2.53906C60.9346 2.22852 61.1689 1.98242 61.4268 1.80078C61.6846 1.61914 61.9658 1.52832 62.2705 1.52832Z" fill="#432907"/>
</svg>
