<svg width="490" height="505" viewBox="0 0 490 505" fill="none" xmlns="http://www.w3.org/2000/svg">
<path fill-rule="evenodd" clip-rule="evenodd" d="M242.717 1.52907C288.669 -4.26392 338.837 6.29348 375.109 35.0788C410.332 63.0316 414.296 113.441 434.401 153.65C453.155 191.156 486.582 222.441 489.701 264.254C492.889 307.002 469.943 346.036 451.642 384.806C431.958 426.505 420.72 480.64 378.638 499.536C336.098 518.637 289.245 481.772 242.717 478.617C200.184 475.733 155.954 499.206 117.044 481.798C77.4459 464.082 53.9967 423.19 33.4618 384.996C13.3434 347.577 0.946105 306.724 0.0819884 264.254C-0.792914 221.253 5.1134 176.753 28.49 140.643C51.4318 105.204 92.8842 89.1905 128.299 66.193C165.676 41.9211 198.493 7.10419 242.717 1.52907Z" fill="#F7EFE3"/>
</svg>
