<svg width="690" height="570" viewBox="0 0 690 570" fill="none" xmlns="http://www.w3.org/2000/svg">
<path fill-rule="evenodd" clip-rule="evenodd" d="M683.674 186.19C712.61 238.829 617.844 284.838 599.458 342.024C582.372 395.166 614.426 460.902 580.982 505.596C547.604 550.201 485.193 570.19 429.491 569.16C376.898 568.188 342.497 508.385 290.531 500.226C228.923 490.553 163.906 545.322 107.552 518.613C52.1547 492.357 23.6727 426.485 9.23386 366.905C-5.06686 307.895 -3.29809 241.055 27.6247 188.801C57.1185 138.962 123.787 129.439 170.233 94.8466C208.751 66.1586 231.487 15.7387 277.674 2.56872C324.004 -10.6421 377.654 -2.02027 418.089 24.1714C456.187 48.8486 448.861 114.915 487.611 138.555C546.021 174.188 650.714 126.23 683.674 186.19Z" fill="#D7DDE7"/>
</svg>
