<svg width="957" height="1109" viewBox="0 0 957 1109" fill="none" xmlns="http://www.w3.org/2000/svg">
<path d="M3.31267 16.5535C2.71965 17.4853 2.99436 18.7215 3.92624 19.3145L19.1121 28.9783C20.044 29.5713 21.2802 29.2966 21.8732 28.3647C22.4662 27.4328 22.1915 26.1967 21.2597 25.6036L7.76106 17.0136L16.3511 3.51505C16.9441 2.58317 16.6694 1.34699 15.7375 0.753975C14.8056 0.160959 13.5694 0.435664 12.9764 1.36755L3.31267 16.5535ZM513.5 908.127L513.496 910.127L513.5 908.127ZM-84.5 1108.13L-82.9945 1085.08L-103.705 1095.3L-84.5 1108.13ZM-92.2055 1074.85C-92.2915 1067.72 -91.1132 1060.28 -88.3743 1052.68L-92.1377 1051.32C-95.0373 1059.37 -96.2971 1067.28 -96.2052 1074.9L-92.2055 1074.85ZM-77.5513 1032.63C-73.4405 1026.97 -68.3668 1021.28 -62.2116 1015.62L-64.9205 1012.67C-71.251 1018.5 -76.5056 1024.39 -80.7866 1030.27L-77.5513 1032.63ZM-44.1515 1001.29C-38.2505 997.211 -31.7206 993.169 -24.5172 989.189L-26.4514 985.688C-33.7623 989.727 -40.407 993.839 -46.427 998.003L-44.1515 1001.29ZM-3.76154 978.778C2.95477 975.709 10.1223 972.694 17.7632 969.743L16.3219 966.011C8.61125 968.99 1.36989 972.036 -5.42357 975.139L-3.76154 978.778ZM39.7202 961.884C46.7915 959.537 54.2023 957.241 61.9654 955.003L60.8573 951.16C53.0458 953.412 45.5843 955.723 38.4603 958.087L39.7202 961.884ZM84.4185 948.946C91.6718 947.115 99.1945 945.331 106.995 943.599L106.127 939.694C98.2913 941.435 90.7314 943.227 83.4397 945.067L84.4185 948.946ZM129.729 938.852C137.145 937.398 144.785 935.987 152.658 934.622L151.974 930.681C144.074 932.05 136.405 933.466 128.96 934.927L129.729 938.852ZM175.828 930.845C183.309 929.7 190.982 928.594 198.85 927.53L198.314 923.566C190.423 924.633 182.728 925.742 175.223 926.891L175.828 930.845ZM221.885 924.602C229.508 923.693 237.302 922.821 245.269 921.988L244.853 918.01C236.867 918.845 229.054 919.719 221.412 920.63L221.885 924.602ZM268.344 919.731C275.947 919.036 283.699 918.376 291.602 917.75L291.286 913.763C283.368 914.389 275.6 915.051 267.98 915.747L268.344 919.731ZM314.983 916.034C322.566 915.519 330.28 915.036 338.128 914.585L337.898 910.591C330.037 911.043 322.309 911.528 314.712 912.043L314.983 916.034ZM361.668 913.347C369.244 912.986 376.937 912.653 384.75 912.35L384.594 908.353C376.77 908.656 369.065 908.99 361.478 909.352L361.668 913.347ZM408.335 911.536C415.923 911.306 423.618 911.104 431.423 910.929L431.333 906.93C423.518 907.105 415.812 907.308 408.214 907.538L408.335 911.536ZM454.962 910.49C462.588 910.377 470.313 910.289 478.14 910.227L478.108 906.227C470.273 906.289 462.538 906.377 454.902 906.491L454.962 910.49ZM501.562 910.122C505.515 910.117 509.493 910.119 513.496 910.127L513.504 906.127C509.497 906.119 505.515 906.117 501.558 906.122L501.562 910.122ZM513.496 910.127C517.712 910.136 521.893 910.124 526.039 910.09L526.007 906.09C521.875 906.124 517.707 906.136 513.504 906.127L513.496 910.127ZM550.49 909.642C558.501 909.41 566.372 909.097 574.105 908.704L573.902 904.709C566.198 905.1 558.357 905.412 550.375 905.643L550.49 909.642ZM598.697 907.155C606.855 906.539 614.849 905.83 622.683 905.031L622.277 901.051C614.479 901.847 606.519 902.553 598.395 903.166L598.697 907.155ZM646.596 902.25C654.837 901.17 662.887 899.984 670.749 898.698L670.103 894.75C662.284 896.03 654.277 897.209 646.076 898.284L646.596 902.25ZM694.194 894.453C702.42 892.816 710.421 891.06 718.204 889.192L717.27 885.302C709.54 887.158 701.589 888.903 693.413 890.53L694.194 894.453ZM741.28 883.142C749.346 880.84 757.153 878.409 764.705 875.853L763.422 872.064C755.934 874.598 748.189 877.011 740.182 879.295L741.28 883.142ZM787.306 867.539C795.017 864.462 802.43 861.243 809.551 857.892L807.847 854.273C800.802 857.589 793.463 860.775 785.823 863.824L787.306 867.539ZM831.258 846.775C838.453 842.769 845.299 838.611 851.808 834.314L849.603 830.976C843.182 835.216 836.421 839.321 829.312 843.28L831.258 846.775ZM871.578 820.03C878.129 814.848 884.259 809.503 889.983 804.013L887.214 801.126C881.584 806.526 875.55 811.788 869.096 816.893L871.578 820.03ZM906.622 786.331C911.961 780.022 916.832 773.562 921.251 766.972L917.929 764.744C913.593 771.209 908.813 777.55 903.568 783.747L906.622 786.331ZM933.591 746.035C937.353 738.695 940.616 731.234 943.402 723.68L939.65 722.296C936.918 729.7 933.719 737.014 930.031 744.211L933.591 746.035ZM950.458 700.344C952.352 692.407 953.766 684.404 954.726 676.365L950.754 675.891C949.812 683.781 948.425 691.632 946.568 699.416L950.458 700.344ZM956.267 652.07C956.34 643.96 955.982 635.845 955.217 627.756L951.234 628.132C951.987 636.089 952.339 644.066 952.268 652.034L956.267 652.07ZM951.745 603.674C950.209 595.726 948.297 587.834 946.037 580.026L942.195 581.139C944.423 588.833 946.305 596.608 947.818 604.433L951.745 603.674ZM938.268 556.98C935.357 549.423 932.125 541.978 928.598 534.675L924.996 536.414C928.476 543.621 931.664 550.965 934.536 558.418L938.268 556.98ZM917.163 513.233C913.061 506.228 908.687 499.394 904.065 492.76L900.783 495.046C905.346 501.595 909.663 508.34 913.711 515.254L917.163 513.233ZM889.389 473.376C884.215 467.08 878.811 461.02 873.201 455.227L870.327 458.01C875.861 463.724 881.193 469.703 886.298 475.916L889.389 473.376ZM855.555 438.482C849.385 433.112 843.023 428.057 836.499 423.35L834.159 426.594C840.582 431.228 846.848 436.207 852.929 441.5L855.555 438.482ZM816.086 410.088C808.991 405.971 801.75 402.267 794.393 399.014L792.775 402.673C799.993 405.864 807.105 409.501 814.078 413.548L816.086 410.088ZM771.553 390.51C763.713 388.134 755.782 386.284 747.796 385.005L747.163 388.955C754.963 390.204 762.718 392.012 770.393 394.338L771.553 390.51ZM723.485 382.921C715.376 382.838 707.247 383.376 699.137 384.579L699.724 388.535C707.621 387.364 715.539 386.84 723.444 386.921L723.485 382.921ZM675.366 390.077C671.478 391.309 667.604 392.707 663.747 394.274L665.253 397.98C669.013 396.452 672.788 395.09 676.575 393.89L675.366 390.077ZM663.747 394.274C659.937 395.823 656.142 397.317 652.363 398.757L653.787 402.495C657.594 401.044 661.416 399.54 665.253 397.98L663.747 394.274ZM629.513 406.874C621.7 409.446 613.964 411.783 606.309 413.891L607.371 417.748C615.091 415.622 622.89 413.265 630.764 410.673L629.513 406.874ZM582.788 419.71C574.756 421.469 566.824 422.97 558.998 424.22L559.629 428.17C567.532 426.908 575.538 425.392 583.643 423.617L582.788 419.71ZM535.009 427.303C526.828 428.095 518.777 428.604 510.866 428.837L510.984 432.835C518.986 432.599 527.126 432.085 535.395 431.285L535.009 427.303ZM486.628 428.68C478.419 428.323 470.381 427.656 462.525 426.69L462.036 430.66C469.999 431.639 478.142 432.315 486.455 432.676L486.628 428.68ZM438.729 422.738C430.699 421.044 422.89 419.016 415.316 416.667L414.132 420.487C421.826 422.874 429.755 424.932 437.904 426.651L438.729 422.738ZM392.652 408.394C385.142 405.214 377.91 401.688 370.97 397.83L369.027 401.327C376.094 405.254 383.454 408.843 391.093 412.077L392.652 408.394ZM350.589 384.957C344.001 380.251 337.746 375.202 331.84 369.827L329.147 372.785C335.171 378.267 341.549 383.415 348.264 388.212L350.589 384.957ZM315.036 352.57C309.797 346.491 304.931 340.097 300.455 333.405L297.13 335.628C301.696 342.456 306.661 348.98 312.006 355.181L315.036 352.57ZM288.292 312.598C284.696 305.503 281.488 298.138 278.684 290.52L274.93 291.902C277.787 299.664 281.057 307.171 284.724 314.406L288.292 312.598ZM271.628 267.437C269.735 259.759 268.22 251.866 267.096 243.773L263.134 244.323C264.277 252.551 265.818 260.58 267.745 268.395L271.628 267.437ZM264.949 219.718C264.622 211.816 264.647 203.75 265.038 195.532L261.042 195.342C260.646 203.676 260.62 211.86 260.953 219.883L264.949 219.718ZM267.176 171.498C267.692 167.516 268.29 163.503 268.972 159.46L265.028 158.795C264.338 162.887 263.732 166.951 263.209 170.984L267.176 171.498ZM268.972 159.46C269.631 155.554 270.17 151.739 270.593 148.012L266.618 147.561C266.204 151.214 265.675 154.957 265.028 158.795L268.972 159.46ZM271.747 125.099C271.6 117.003 270.824 109.398 269.471 102.26L265.541 103.005C266.85 109.907 267.605 117.286 267.747 125.172L271.747 125.099ZM262.886 80.1555C259.804 72.8187 255.983 66.1262 251.519 60.035L248.292 62.3995C252.572 68.2395 256.239 74.6584 259.198 81.7044L262.886 80.1555ZM235.819 43.1083C230.048 38.1304 223.727 33.7341 216.962 29.8676L214.977 33.3404C221.54 37.0915 227.648 41.3423 233.207 46.1372L235.819 43.1083ZM196.166 20.0794C189.149 17.3837 181.832 15.1031 174.298 13.1961L173.317 17.0738C180.713 18.9461 187.877 21.1803 194.731 23.8133L196.166 20.0794ZM151.875 8.66858C144.413 7.51045 136.825 6.65113 129.181 6.05649L128.871 10.0444C136.422 10.6319 143.909 11.4801 151.261 12.6212L151.875 8.66858ZM106.379 5.03551C98.7428 4.93222 91.1165 5.05679 83.5684 5.37631L83.7376 9.37273C91.2162 9.05615 98.7678 8.93292 106.325 9.03514L106.379 5.03551ZM60.8158 6.92496C53.0789 7.64658 45.5047 8.54884 38.1732 9.59323L38.7374 13.5532C46.0067 12.5177 53.5167 11.6231 61.1873 10.9077L60.8158 6.92496ZM15.7015 13.3614C11.8795 14.1021 8.16286 14.8756 4.56613 15.6748L5.43385 19.5796C8.99449 18.7883 12.6756 18.0222 16.4625 17.2884L15.7015 13.3614Z" fill="white"/>
</svg>
